<svg xmlns="http://www.w3.org/2000/svg" xmlns:xlink="http://www.w3.org/1999/xlink" version="1.1" width="256" height="256" viewBox="0 0 256 256" xml:space="preserve">
<g style="stroke: none; stroke-width: 0; stroke-dasharray: none; stroke-linecap: butt; stroke-linejoin: miter; stroke-miterlimit: 10; fill: none; fill-rule: nonzero; opacity: 1;" transform="translate(1.4065934065934016 1.4065934065934016) scale(2.81 2.81)">
	<path d="M 53.149 43.259 h -2.128 v -6.655 c 0 -3.32 -2.701 -6.021 -6.021 -6.021 c -3.32 0 -6.021 2.701 -6.021 6.021 v 6.655 h -2.128 c -0.552 0 -1 0.448 -1 1 v 6.008 c 0 5.045 4.104 9.149 9.149 9.149 s 9.149 -4.104 9.149 -9.149 v -6.008 C 54.149 43.707 53.702 43.259 53.149 43.259 z M 40.979 36.604 c 0 -2.217 1.804 -4.021 4.021 -4.021 c 2.218 0 4.021 1.804 4.021 4.021 v 6.655 h -8.042 V 36.604 z M 52.149 50.268 c 0 3.942 -3.207 7.149 -7.149 7.149 c -3.942 0 -7.149 -3.207 -7.149 -7.149 v -5.008 h 2.128 h 10.042 h 2.128 V 50.268 z" style="stroke: none; stroke-width: 1; stroke-dasharray: none; stroke-linecap: butt; stroke-linejoin: miter; stroke-miterlimit: 10; fill: rgb(0,0,0); fill-rule: nonzero; opacity: 1;" transform=" matrix(1 0 0 1 0 0) " stroke-linecap="round"/>
  <path d="M 45 48.856 c -0.552 0 -1 0.447 -1 1 v 2.47 c 0 0.553 0.448 1 1 1 s 1 -0.447 1 -1 v -2.47 C 46 49.304 45.552 48.856 45 48.856 z" style="stroke: none; stroke-width: 1; stroke-dasharray: none; stroke-linecap: butt; stroke-linejoin: miter; stroke-miterlimit: 10; fill: rgb(0,0,0); fill-rule: nonzero; opacity: 1;" transform=" matrix(1 0 0 1 0 0) " stroke-linecap="round"/>
  <path d="M 79.425 47.491 c 0.47 2.466 2.636 4.338 5.237 4.338 c 2.943 0 5.338 -2.395 5.338 -5.338 c 0 -2.943 -2.395 -5.337 -5.338 -5.337 c -2.601 0 -4.766 1.872 -5.237 4.337 h -11.07 c 0.113 -1.468 0.178 -2.995 0.178 -4.602 v -8.832 h 6.836 c 0.279 0 0.546 -0.117 0.735 -0.322 l 5.751 -6.239 c 0.818 0.51 1.774 0.817 2.807 0.817 c 2.943 0 5.338 -2.395 5.338 -5.338 c 0 -2.943 -2.395 -5.337 -5.338 -5.337 s -5.338 2.395 -5.338 5.337 c 0 1.188 0.403 2.276 1.062 3.163 l -5.456 5.918 h -6.397 v -5.33 c 0 -0.533 -0.418 -0.973 -0.951 -0.999 c -7.233 -0.354 -14.602 -3.989 -21.899 -10.804 c -0.385 -0.358 -0.98 -0.358 -1.365 0 c -7.298 6.815 -14.666 10.45 -21.899 10.804 c -0.533 0.026 -0.951 0.466 -0.951 0.999 v 5.33 h -6.398 l -5.456 -5.918 c 0.659 -0.888 1.062 -1.975 1.062 -3.163 c 0 -2.943 -2.395 -5.337 -5.337 -5.337 C 2.395 15.639 0 18.033 0 20.976 c 0 2.943 2.395 5.338 5.338 5.338 c 1.032 0 1.989 -0.308 2.807 -0.817 l 5.752 6.239 c 0.189 0.206 0.456 0.322 0.735 0.322 h 6.836 v 8.832 c 0 1.607 0.065 3.134 0.178 4.602 H 10.574 c -0.47 -2.466 -2.636 -4.337 -5.236 -4.337 C 2.395 41.154 0 43.548 0 46.491 c 0 2.943 2.395 5.338 5.338 5.338 c 2.6 0 4.766 -1.872 5.236 -4.338 h 11.263 c 0.62 5.358 1.995 9.768 3.902 13.434 H 14.631 c -0.279 0 -0.546 0.117 -0.735 0.322 l -5.752 6.239 c -0.818 -0.51 -1.774 -0.817 -2.806 -0.817 C 2.395 66.669 0 69.063 0 72.007 s 2.395 5.338 5.338 5.338 c 2.943 0 5.337 -2.395 5.337 -5.338 c 0 -1.188 -0.403 -2.276 -1.062 -3.163 l 5.456 -5.919 h 11.813 c 4.471 7.232 11.125 11.309 17.7 14.329 c 0.133 0.061 0.275 0.091 0.417 0.091 s 0.285 -0.03 0.417 -0.091 c 6.575 -3.02 13.229 -7.098 17.7 -14.329 h 11.813 l 5.456 5.918 c -0.659 0.888 -1.062 1.975 -1.062 3.164 c 0 2.943 2.395 5.338 5.338 5.338 S 90 74.95 90 72.007 s -2.395 -5.338 -5.338 -5.338 c -1.032 0 -1.989 0.308 -2.806 0.817 l -5.751 -6.239 c -0.189 -0.205 -0.456 -0.322 -0.735 -0.322 H 64.261 c 1.907 -3.665 3.283 -8.075 3.902 -13.434 H 79.425 z M 84.662 43.154 c 1.841 0 3.338 1.497 3.338 3.337 c 0 1.841 -1.497 3.338 -3.338 3.338 s -3.338 -1.497 -3.338 -3.338 C 81.324 44.651 82.821 43.154 84.662 43.154 z M 84.662 17.639 c 1.841 0 3.338 1.497 3.338 3.337 s -1.497 3.338 -3.338 3.338 s -3.338 -1.498 -3.338 -3.338 S 82.821 17.639 84.662 17.639 z M 2 20.976 c 0 -1.84 1.498 -3.337 3.338 -3.337 s 3.337 1.497 3.337 3.337 s -1.497 3.338 -3.337 3.338 S 2 22.816 2 20.976 z M 5.338 49.829 C 3.498 49.829 2 48.332 2 46.491 c 0 -1.84 1.498 -3.337 3.338 -3.337 s 3.337 1.497 3.337 3.337 C 8.675 48.332 7.178 49.829 5.338 49.829 z M 5.338 75.345 C 3.498 75.345 2 73.848 2 72.007 s 1.498 -3.338 3.338 -3.338 s 3.337 1.497 3.337 3.338 S 7.178 75.345 5.338 75.345 z M 88 72.007 c 0 1.841 -1.497 3.338 -3.338 3.338 s -3.338 -1.497 -3.338 -3.338 s 1.497 -3.338 3.338 -3.338 S 88 70.166 88 72.007 z M 45 75.243 c -10.719 -5 -21.533 -13.072 -21.533 -34.354 V 25.663 C 30.645 25.049 37.881 21.471 45 15.015 c 7.119 6.457 14.355 10.035 21.533 10.648 V 40.89 C 66.533 62.171 55.72 70.243 45 75.243 z" style="stroke: none; stroke-width: 1; stroke-dasharray: none; stroke-linecap: butt; stroke-linejoin: miter; stroke-miterlimit: 10; fill: rgb(0,0,0); fill-rule: nonzero; opacity: 1;" transform=" matrix(1 0 0 1 0 0) " stroke-linecap="round"/>
</g>
</svg>